<svg width="64" height="64" viewBox="0 0 64 64" fill="none" xmlns="http://www.w3.org/2000/svg">
<g clip-path="url(#clip0_1_916)">
<path d="M1.1387 40.4784C0.384155 37.7305 0 34.8764 0 32.0017C0 18.8789 8.24168 6.87997 20.5099 2.14825L22.1184 6.31121C11.5582 10.3851 4.46553 20.7085 4.46553 32.0017C4.46553 34.4789 4.79477 36.9321 5.443 39.2962L1.1387 40.4784Z" fill="#58D09E"/>
<path d="M20.2955 2.2505C22.9495 1.21286 25.7478 0.532471 28.6067 0.231986C41.6576 -1.13972 54.4523 5.80258 60.4405 17.509L56.4685 19.5438C51.3131 9.46734 40.3048 3.4926 29.0735 4.67306C26.6099 4.93199 24.2045 5.51586 21.9211 6.40766L20.2955 2.2505Z" fill="#58D09E"/>
<path d="M46.6473 55.2685C55.3618 49.7137 60.2156 39.8557 59.3137 29.5475C58.9942 25.895 57.9805 22.4066 56.3057 19.1861L60.2628 17.1219C62.2103 20.866 63.3899 24.9148 63.7612 29.1584C64.8089 41.1339 59.1725 52.5821 49.0474 59.0351L46.6473 55.2685Z" fill="black"/>
<path d="M22.5027 25.3992C25.092 25.3992 27.2014 26.78 28.2852 29.1887L28.371 29.3772L32.7198 27.9004L32.6272 27.6778C30.9432 23.5764 27.0642 21.0272 22.5027 21.0272C19.2958 21.0272 16.6892 22.0552 14.5354 24.1658C12.3952 26.2627 11.3114 28.901 11.3114 32.0086C11.3114 35.0888 12.3952 37.7134 14.5354 39.8103C16.6892 41.921 19.2958 42.9488 22.5027 42.9488C27.0642 42.9488 30.9432 40.3996 32.6272 36.3018L32.7198 36.0791L28.364 34.5988L28.2818 34.7942C27.3111 37.1618 25.1504 38.5768 22.5027 38.5768C20.6986 38.5768 19.1758 37.9464 17.9684 36.706C16.7475 35.4486 16.1302 33.8691 16.1302 32.012C16.1302 30.1412 16.7338 28.5926 17.9684 27.2768C19.1723 26.0298 20.6986 25.3992 22.5027 25.3992Z" fill="black"/>
<path d="M49.7415 21.4316L43.544 37.1137L37.3054 21.4316H32.2019L40.9511 42.8357L34.7262 57.932L39.1883 58.8194L54.5638 21.4316H49.7415Z" fill="black"/>
<path d="M35.5245 55.9859L34.4373 58.6174C34.2212 59.1382 33.7273 59.4909 33.1717 59.5149C32.8048 59.5287 32.4344 59.539 32.0605 59.539C19.2641 59.5322 7.94257 50.5107 5.13704 38.08L0.78125 39.0634C2.35551 46.0359 6.30659 52.3643 11.9073 56.8871C17.5733 61.4611 24.7105 63.9863 32.0125 64C32.0228 64 32.0776 64 32.0776 64C32.5064 64 32.9316 63.9897 33.3569 63.9727C35.648 63.8767 37.6956 62.4411 38.5701 60.3134L39.99 56.8733L35.5245 55.9859Z" fill="black"/>
</g>
<defs>
<clipPath id="clip0_1_916">
<rect width="64" height="64" fill="white"/>
</clipPath>
</defs>
</svg>
