<svg width="70" height="64" viewBox="0 0 70 64" fill="none" xmlns="http://www.w3.org/2000/svg">
<g clip-path="url(#clip0_1_850)">
<path d="M35.0909 38.7725C38.7633 38.7725 41.7403 35.7404 41.7403 32C41.7403 28.2597 38.7633 25.2275 35.0909 25.2275C31.4186 25.2275 28.4416 28.2597 28.4416 32C28.4416 35.7404 31.4186 38.7725 35.0909 38.7725Z" fill="#087EA4"/>
<path d="M35.0909 47.238C53.4526 47.238 68.3377 40.4157 68.3377 31.9999C68.3377 23.5842 53.4526 16.7618 35.0909 16.7618C16.7293 16.7618 1.84418 23.5842 1.84418 31.9999C1.84418 40.4157 16.7293 47.238 35.0909 47.238Z" stroke="#087EA4" stroke-width="3"/>
<path d="M22.1343 39.619C31.3151 55.8152 44.5586 65.5336 51.7143 61.3257C58.8701 57.1178 57.2284 40.5771 48.0476 24.3809C38.8667 8.18475 25.6233 -1.53366 18.4676 2.67422C11.3118 6.88211 12.9535 23.4228 22.1343 39.619Z" stroke="#087EA4" stroke-width="3"/>
<path d="M22.1343 24.3808C12.9535 40.577 11.3118 57.1177 18.4676 61.3256C25.6233 65.5335 38.8667 55.8151 48.0476 39.6189C57.2284 23.4228 58.8701 6.88205 51.7143 2.67416C44.5586 -1.53372 31.3151 8.18469 22.1343 24.3808Z" stroke="#087EA4" stroke-width="3"/>
</g>
<defs>
<clipPath id="clip0_1_850">
<rect width="69.8182" height="64" fill="white" transform="translate(0.181824)"/>
</clipPath>
</defs>
</svg>
